{"title":"Mission Impossible 5 Rogue Nation {2015} FULL HQTS XVID MP3-MRG","uid":12197636,"size":1686501954,"categoryP":"video","categoryS":"movies","magnet":"?xt=urn:btih:cfa550f80fdcea83aa2508130f2cedb37f002f72&amp;dn=Mission+Impossible+5+Rogue+Nation+%7B2015%7D+FULL+HQTS+XVID+MP3-MRG&amp;tr=udp%3A%2F%2Ftracker.openbittorrent.com%3A80&amp;tr=udp%3A%2F%2Fopen.demonii.com%3A1337&amp;tr=udp%3A%2F%2Ftracker.coppersurfer.tk%3A6969&amp;tr=udp%3A%2F%2Fexodus.desync.com%3A6969","seeders":193,"leechers":94,"uploader":"SaM","files":16,"time":1438774734,"description":"Mission Impossible 5 Rogue Nation {2015} FULL HQTS XVID MP3-MRG\n\nFull movie first 6 mins is missing footage frm victry thnx bro..\nwith cam audio..rest of movie hqts...:)\n\nFormat                      : AVI\nFormat/Info                 : Audio Video Interleave\nFile size                   : 1.57 GiB\nDuration                    : 2h 4mn\nOverall bit rate            : 1 798 Kbps\nWriting library             : VirtualDub build 35491/release\n\nVideo\nID                          : 0\nFormat                      : MPEG-4 Visual\nFormat profile              : Advanced Simple@L5\nFormat settings, BVOP       : 2\nFormat settings, QPel       : No\nFormat settings, GMC        : No warppoints\nFormat settings, Matrix     : Default (H.263)\nMuxing mode                 : Packed bitstream\nCodec ID                    : XVID\nCodec ID/Hint               : XviD\nDuration                    : 2h 4mn\nBit rate                    : 1 561 Kbps\nWidth                       : 720 pixels\nHeight                      : 344 pixels\nDisplay aspect ratio        : 2.093\nFrame rate                  : 25.000 fps\nColor space                 : YUV\nChroma subsampling          : 4:2:0\nBit depth                   : 8 bits\nScan type                   : Progressive\nCompression mode            : Lossy\nBits/(Pixel*Frame)          : 0.252\nStream size                 : 1.36 GiB (87%)\nWriting library             : XviD 67\n\nAudio\nID                          : 1\nFormat                      : MPEG Audio\nFormat version              : Version 1\nFormat profile              : Layer 3\nMode                        : Joint stereo\nCodec ID                    : 55\nCodec ID/Hint               : MP3\nDuration                    : 2h 4mn\nBit rate mode               : Constant\nBit rate                    : 224 Kbps\nChannel(s)                  : 2 channels\nSampling rate               : 48.0 KHz\nCompression mode            : Lossy\nStream size                 : 200 MiB (12%)\nAlignment                   : Aligned on interleaves\nInterleave, duration        : 24 ms (0.60 video frame)\nInterleave, preload duratio : 882 ms\nWriting library             : LAME3.98.4\n &lt;a href=&quot;\nhttp://extraimago.com/image/SEE&quot; rel=&quot;nofollow&quot; target=&quot;_NEW&quot;&gt;\nhttp://extraimago.com/image/SEE&lt;/a&gt; &lt;a href=&quot;\nhttp://extraimago.com/image/SE1&quot; rel=&quot;nofollow&quot; target=&quot;_NEW&quot;&gt;\nhttp://extraimago.com/image/SE1&lt;/a&gt; &lt;a href=&quot;\nhttp://extraimago.com/image/SEc&quot; rel=&quot;nofollow&quot; target=&quot;_NEW&quot;&gt;\nhttp://extraimago.com/image/SEc&lt;/a&gt; &lt;a href=&quot;\nhttp://extraimago.com/image/SE7&quot; rel=&quot;nofollow&quot; target=&quot;_NEW&quot;&gt;\nhttp://extraimago.com/image/SE7&lt;/a&gt; &lt;a href=&quot;\nhttp://extraimago.com/image/SEs&quot; rel=&quot;nofollow&quot; target=&quot;_NEW&quot;&gt;\nhttp://extraimago.com/image/SEs&lt;/a&gt; &lt;a href=&quot;\nhttp://extraimago.com/image/SEn&quot; rel=&quot;nofollow&quot; target=&quot;_NEW&quot;&gt;\nhttp://extraimago.com/image/SEn&lt;/a&gt; &lt;a href=&quot;\nhttp://extraimago.com/image/SEj&quot; rel=&quot;nofollow&quot; target=&quot;_NEW&quot;&gt;\nhttp://extraimago.com/image/SEj&lt;/a&gt; &lt;a href=&quot;\nhttp://extraimago.com/image/SET&quot; rel=&quot;nofollow&quot; target=&quot;_NEW&quot;&gt;\nhttp://extraimago.com/image/SET&lt;/a&gt; &lt;a href=&quot;\nhttp://extraimago.com/image/SEN&quot; rel=&quot;nofollow&quot; target=&quot;_NEW&quot;&gt;\nhttp://extraimago.com/image/SEN&lt;/a&gt; &lt;a href=&quot;\nhttp://extraimago.com/image/SE2&quot; rel=&quot;nofollow&quot; target=&quot;_NEW&quot;&gt;\nhttp://extraimago.com/image/SE2&lt;/a&gt; &lt;a href=&quot;\nhttp://extraimago.com/image/SEw&quot; rel=&quot;nofollow&quot; target=&quot;_NEW&quot;&gt;\nhttp://extraimago.com/image/SEw&lt;/a&gt; &lt;a href=&quot;\nhttp://extraimago.com/image/SEa&quot; rel=&quot;nofollow&quot; target=&quot;_NEW&quot;&gt;\nhttp://extraimago.com/image/SEa&lt;/a&gt;","torrent":{"xt":"urn:btih:cfa550f80fdcea83aa2508130f2cedb37f002f72","amp;dn":"Mission+Impossible+5+Rogue+Nation+%7B2015%7D+FULL+HQTS+XVID+MP3-MRG","amp;tr":["udp%3A%2F%2Ftracker.openbittorrent.com%3A80","udp%3A%2F%2Fopen.demonii.com%3A1337","udp%3A%2F%2Ftracker.coppersurfer.tk%3A6969","udp%3A%2F%2Fexodus.desync.com%3A6969"],"infoHash":"cfa550f80fdcea83aa2508130f2cedb37f002f72","infoHashBuffer":{"type":"Buffer","data":[207,165,80,248,15,220,234,131,170,37,8,19,15,44,237,179,127,0,47,114]},"announce":[],"urlList":[]}}